<?xml version="1.0" encoding="UTF-8"?>
<svg id="Layer_1" data-name="Layer 1" xmlns="http://www.w3.org/2000/svg" viewBox="0 0 500 500">
  <defs>
    <style>
      .cls-1 {
        fill: #006;
      }

      .cls-2 {
        fill: #fff;
      }

      .cls-3 {
        fill: #c8102e;
      }

      .cls-4 {
        fill: #a9e2b0;
      }

      .cls-5 {
        fill: none;
      }
    </style>
  </defs>
  <path class="cls-1" d="m262.4,48v155.05H29.92c-3.22,15.15-4.92,30.85-4.92,46.95h0c0,124.26,100.74,225,225,225h0c124.26,0,225-100.74,225-225h0c0-9.82-.63-19.5-1.85-28.98l-7.7-8.18-9.79,10.24,1.93-13.95-14.1-1.26,12.31-7.2-7.94-11.72,13.21,4.97,3.64-11.37c-27.47-87.54-107-152.03-202.31-157.21v22.65Zm-42.95,303.2l-22.33-23.52-22.33,23.52,4.45-32.2-32.42-2.82,27.97-16.54-18.03-27.08,30.42,11.5,9.94-30.94,10.02,30.94,30.42-11.5-18.03,27.08,27.89,16.54-32.42,2.82,4.45,32.2Zm207.65-107.64l3.49,8.38,8.98.67-6.9,5.79,2.15,8.83-7.72-4.82-7.64,4.82,2.15-8.83-6.9-5.79,8.98-.74,3.41-8.31Zm-48.96-118.7l13.21,4.97,4.3-13.43,4.3,13.43,13.21-4.97-7.79,11.72,12.17,7.27-14.1,1.19,1.93,14.02-9.64-10.24-9.79,10.16,1.93-13.95-14.1-1.19,12.17-7.27-7.79-11.72Zm7.86,221l-7.86-11.72,13.21,4.97,4.3-13.43,4.3,13.43,13.21-4.97-7.79,11.72,12.17,7.2-14.1,1.26,1.93,14.02-9.64-10.31-9.79,10.31,1.93-14.02-14.1-1.19,12.24-7.27Zm-86.28-135.98l13.21,4.97,4.3-13.43,4.38,13.43,13.21-4.97-7.86,11.72,12.17,7.2-14.1,1.26,2,14.02-9.79-10.31-9.64,10.31,1.85-14.02-14.1-1.19,12.17-7.27-7.79-11.72Z"/>
  <polygon class="cls-2" points="385.92 368.33 395.71 358.02 405.35 368.33 403.42 354.31 417.52 353.05 405.35 345.86 413.14 334.13 399.94 339.11 395.64 325.68 391.33 339.11 378.13 334.13 385.99 345.86 373.75 353.13 387.85 354.31 385.92 368.33"/>
  <polygon class="cls-2" points="387.85 145.03 385.92 158.98 395.71 148.82 405.35 159.05 403.42 145.03 417.52 143.85 405.35 136.58 413.14 124.85 399.94 129.83 395.64 116.4 391.33 129.83 378.13 124.85 385.92 136.58 373.75 143.85 387.85 145.03"/>
  <polygon class="cls-2" points="309.43 230.05 307.58 244.07 317.22 233.76 327.01 244.07 325.01 230.05 339.11 228.79 326.94 221.59 334.8 209.87 321.6 214.84 317.22 201.42 312.92 214.84 299.71 209.87 307.5 221.59 295.34 228.86 309.43 230.05"/>
  <path class="cls-2" d="m447.86,188.95l7.94,11.72-12.31,7.2,14.1,1.26-1.93,13.95,9.79-10.24,7.7,8.18c-1.7-13.21-4.55-26.07-8.44-38.46l-3.64,11.37-13.21-4.97Z"/>
  <polygon class="cls-2" points="219.52 299.64 237.54 272.56 207.13 284.06 197.11 253.12 187.17 284.06 156.76 272.56 174.78 299.64 146.81 316.18 179.23 319 174.78 351.2 197.11 327.68 219.44 351.2 214.99 319 247.41 316.18 219.52 299.64"/>
  <polygon class="cls-2" points="421.6 258.39 419.45 267.22 427.09 262.4 434.81 267.22 432.65 258.39 439.55 252.6 430.58 251.94 427.09 243.55 423.68 251.86 414.7 252.6 421.6 258.39"/>
  <polygon class="cls-1" points="262.4 84.35 262.4 48 213.66 84.35 262.4 84.35"/>
  <polygon class="cls-1" points="55.05 203.05 114.39 203.05 114.39 158.6 55.05 203.05"/>
  <path class="cls-1" d="m173.74,38.26v31.22l58.83-43.82c-20.5,1.57-40.23,5.9-58.83,12.6Z"/>
  <path class="cls-1" d="m74.8,143.7h-23.15c-4.51,8.4-8.5,17.13-11.94,26.13l35.08-26.13Z"/>
  <path class="cls-1" d="m114.39,70.45s-.1.08-.15.11l.15.11v-.22Z"/>
  <polygon class="cls-1" points="173.74 203.05 232.72 203.05 173.74 159.06 173.74 203.05"/>
  <polygon class="cls-1" points="262.4 180.42 262.4 143.7 212.88 143.7 262.4 180.42"/>
  <path class="cls-2" d="m74.8,143.7l-35.08,26.13c-3.56,9.33-6.52,18.95-8.83,28.83l73.68-54.95h-29.77Z"/>
  <polygon class="cls-2" points="173.74 143.7 173.74 159.06 232.72 203.05 262.4 203.05 181.57 143.7 173.74 143.7"/>
  <path class="cls-2" d="m114.39,84.35v-13.67l-.15-.11c-4.46,3.38-8.78,6.92-12.97,10.61l4.31,3.18h8.8Z"/>
  <path class="cls-2" d="m173.74,69.48v7.83l69.98-52.22c-3.74.1-7.46.29-11.16.58l-58.83,43.82Z"/>
  <polygon class="cls-2" points="114.39 151.02 45.03 203.05 55.05 203.05 114.39 158.6 114.39 151.02"/>
  <polygon class="cls-2" points="262.4 48 262.4 26.11 185.26 84.35 213.66 84.35 262.4 48"/>
  <polygon class="cls-2" points="201.93 143.7 262.4 188.21 262.4 180.42 212.88 143.7 201.93 143.7"/>
  <path class="cls-3" d="m101.28,81.17c-1.19,1.05-2.37,2.1-3.53,3.18h7.84l-4.31-3.18Z"/>
  <polygon class="cls-3" points="181.57 143.7 262.4 203.05 262.4 188.21 201.93 143.7 181.57 143.7"/>
  <path class="cls-3" d="m114.39,143.7h-9.82l-73.68,54.95c-.34,1.46-.66,2.93-.97,4.39h15.11l69.36-52.02v-7.33Z"/>
  <path class="cls-3" d="m250,25c-2.1,0-4.19.03-6.27.09l-69.98,52.22v7.04h11.52l77.13-58.24v-.77c-4.1-.22-8.24-.34-12.4-.34h0Z"/>
  <path class="cls-2" d="m114.39,70.68l11.87,8.81v-17.41c-4.05,2.67-8.01,5.47-11.87,8.39v.22Z"/>
  <polygon class="cls-2" points="212.88 143.7 262.4 143.7 262.4 132.2 197.38 132.2 212.88 143.7"/>
  <polygon class="cls-2" points="161.87 150.21 161.87 203.05 173.74 203.05 173.74 159.06 161.87 150.21"/>
  <path class="cls-2" d="m173.74,69.48v-31.22c-4.01,1.44-7.97,2.99-11.87,4.66v35.4l11.87-8.84Z"/>
  <polygon class="cls-2" points="197.25 96.59 262.4 96.59 262.4 84.35 213.66 84.35 197.25 96.59"/>
  <path class="cls-2" d="m85.43,96.59h3.82l-2.26-1.68c-.53.55-1.04,1.12-1.56,1.68Z"/>
  <path class="cls-2" d="m90.24,132.2h-31.97c-2.32,3.76-4.53,7.6-6.62,11.5h23.15l15.44-11.5Z"/>
  <polygon class="cls-2" points="114.39 158.6 114.39 203.05 126.26 203.05 126.26 149.71 114.39 158.6"/>
  <polygon class="cls-2" points="126.26 143.7 126.26 132.2 114.39 132.2 114.39 138.81 115.23 143.7 126.26 143.7"/>
  <polygon class="cls-2" points="161.87 78.32 161.87 84.35 170.56 84.35 170.78 79.53 173.74 77.31 173.74 69.48 161.87 78.32"/>
  <polygon class="cls-2" points="115.23 143.7 116.25 149.63 114.39 151.02 114.39 158.6 126.26 149.71 126.26 143.7 115.23 143.7"/>
  <polygon class="cls-2" points="173.74 96.59 197.25 96.59 213.66 84.35 185.26 84.35 173.74 93.05 173.74 96.59"/>
  <polygon class="cls-2" points="161.87 150.21 173.74 159.06 173.74 143.7 161.87 143.7 161.87 150.21"/>
  <rect class="cls-2" x="114.39" y="84.35" width="11.87" height="12.24"/>
  <path class="cls-2" d="m114.39,84.35h-8.8l8.06,5.93h-22.12c-1.53,1.52-3.05,3.06-4.54,4.63l2.26,1.68h25.15v-12.24Z"/>
  <polygon class="cls-2" points="173.74 143.7 181.57 143.7 173.74 137.95 173.74 143.7"/>
  <polygon class="cls-2" points="126.26 84.35 126.26 79.48 114.39 70.68 114.39 84.35 126.26 84.35"/>
  <polygon class="cls-2" points="201.93 143.7 212.88 143.7 197.38 132.2 186.31 132.2 201.93 143.7"/>
  <polygon class="cls-2" points="165.92 132.2 161.87 132.2 161.87 143.7 173.74 143.7 173.74 137.95 165.92 132.2"/>
  <polygon class="cls-2" points="114.02 136.65 114.39 138.81 114.39 132.2 90.24 132.2 74.8 143.7 104.57 143.7 114.02 136.65"/>
  <polygon class="cls-2" points="173.74 96.59 173.74 93.05 170.03 95.85 170.56 84.35 161.87 84.35 161.87 96.59 173.74 96.59"/>
  <path class="cls-2" d="m113.65,90.28l-8.06-5.93h-7.84c-2.11,1.94-4.18,3.92-6.22,5.93h22.12Z"/>
  <polygon class="cls-2" points="114.02 136.65 104.57 143.7 114.39 143.7 114.39 138.81 114.02 136.65"/>
  <polygon class="cls-2" points="173.74 137.95 173.74 132.2 165.92 132.2 173.74 137.95"/>
  <polygon class="cls-2" points="170.03 95.85 173.74 93.05 173.74 84.35 170.56 84.35 170.03 95.85"/>
  <polygon class="cls-2" points="185.26 84.35 173.74 84.35 173.74 93.05 185.26 84.35"/>
  <polygon class="cls-2" points="114.39 138.81 114.39 143.7 115.23 143.7 114.39 138.81"/>
  <polygon class="cls-2" points="170.56 84.35 173.74 84.35 173.74 77.31 170.78 79.53 170.56 84.35"/>
  <polygon class="cls-2" points="173.74 132.2 173.74 137.95 181.57 143.7 201.93 143.7 186.31 132.2 173.74 132.2"/>
  <polygon class="cls-2" points="115.23 143.7 114.39 143.7 114.39 151.02 116.25 149.63 115.23 143.7"/>
  <polygon class="cls-3" points="134.29 143.7 153.15 143.7 143.7 136.65 134.29 143.7"/>
  <polygon class="cls-3" points="173.74 114.67 173.74 114.12 173.37 114.39 173.74 114.67"/>
  <polygon class="cls-3" points="153.79 84.35 132.83 84.35 143.33 92.14 153.79 84.35"/>
  <polygon class="cls-3" points="153.15 143.7 134.29 143.7 126.26 149.71 126.26 203.05 161.87 203.05 161.87 150.21 153.15 143.7"/>
  <path class="cls-3" d="m132.83,84.35h20.96l8.09-6.02v-35.4c-12.49,5.32-24.4,11.75-35.61,19.15v17.41l6.56,4.87Z"/>
  <path class="cls-3" d="m113.65,114.77l-24.4-18.18h-3.82c-10.18,10.91-19.29,22.84-27.15,35.61h31.97l23.41-17.43Z"/>
  <polygon class="cls-3" points="173.74 114.12 173.74 114.67 197.38 132.2 262.4 132.2 262.4 96.59 197.25 96.59 173.74 114.12"/>
  <polygon class="cls-3" points="161.87 132.2 126.26 132.2 126.26 143.7 134.29 143.7 143.7 136.65 153.15 143.7 161.87 143.7 161.87 132.2"/>
  <polygon class="cls-3" points="126.26 149.71 134.29 143.7 126.26 143.7 126.26 149.71"/>
  <polygon class="cls-3" points="153.15 143.7 161.87 150.21 161.87 143.7 153.15 143.7"/>
  <polygon class="cls-3" points="182.28 129.23 186.31 132.2 197.38 132.2 173.74 114.67 173.74 129.23 182.28 129.23"/>
  <polygon class="cls-3" points="165.92 132.2 161.87 129.23 161.87 132.2 165.92 132.2"/>
  <polygon class="cls-3" points="161.87 78.32 153.79 84.35 161.87 84.35 161.87 78.32"/>
  <rect class="cls-3" x="114.39" y="96.59" width="11.87" height="35.61"/>
  <polygon class="cls-3" points="197.25 96.59 173.74 96.59 173.74 114.12 197.25 96.59"/>
  <polygon class="cls-3" points="161.87 129.23 173.74 129.23 173.74 114.67 173.37 114.39 173.74 114.12 173.74 96.59 161.87 96.59 161.87 129.23"/>
  <polygon class="cls-3" points="161.87 132.2 161.87 129.23 161.87 96.59 126.26 96.59 126.26 132.2 161.87 132.2"/>
  <polygon class="cls-3" points="132.83 84.35 126.26 79.48 126.26 84.35 132.83 84.35"/>
  <polygon class="cls-3" points="126.26 96.59 161.87 96.59 161.87 84.35 153.79 84.35 143.33 92.14 132.83 84.35 126.26 84.35 126.26 96.59"/>
  <polygon class="cls-3" points="114.39 96.59 89.25 96.59 113.65 114.77 90.24 132.2 114.39 132.2 114.39 96.59"/>
  <polygon class="cls-3" points="186.31 132.2 182.28 129.23 173.74 129.23 173.74 132.2 186.31 132.2"/>
  <polygon class="cls-3" points="173.74 132.2 173.74 129.23 161.87 129.23 165.92 132.2 173.74 132.2"/>
  <g>
    <path class="cls-5" d="m464.71,182.56c-27.47-87.54-107-152.03-202.31-157.21-4.1-.22-8.24-.34-12.4-.34h0c-2.1,0-4.19.03-6.27.09-3.74.1-7.46.29-11.16.58-20.5,1.57-40.23,5.9-58.83,12.6-4.01,1.44-7.97,2.99-11.87,4.66-12.49,5.32-24.4,11.75-35.61,19.15-4.05,2.67-8.01,5.47-11.87,8.39-.05.04-.1.08-.15.11-4.46,3.38-8.78,6.92-12.97,10.61-1.19,1.05-2.37,2.1-3.53,3.18-2.11,1.94-4.18,3.92-6.22,5.93-1.53,1.52-3.05,3.06-4.54,4.63-.53.55-1.04,1.12-1.56,1.68-10.18,10.91-19.29,22.84-27.15,35.61-2.32,3.76-4.53,7.6-6.62,11.5-4.51,8.4-8.5,17.13-11.94,26.13-3.56,9.33-6.52,18.95-8.83,28.83-.34,1.46-.66,2.93-.97,4.39-3.22,15.15-4.92,30.85-4.92,46.95h0c0,124.26,100.74,225,225,225h0c124.26,0,225-100.74,225-225h0c0-9.82-.63-19.5-1.85-28.98-1.7-13.21-4.55-26.07-8.44-38.46Z"/>
    <path class="cls-4" d="m359.08,25C326.12,8.99,289.11,0,250,0h0c-39.11,0-76.12,8.99-109.08,25-4.98,2.42-9.86,5-14.65,7.73-4.03,2.3-7.99,4.71-11.87,7.22-7.26,4.7-14.26,9.77-20.97,15.17-4.35,3.5-8.59,7.14-12.69,10.92-3.23,2.98-6.38,6.04-9.46,9.18-1.5,1.54-2.99,3.09-4.45,4.67-1.37,1.47-2.72,2.96-4.05,4.46-3.52,3.97-6.91,8.05-10.17,12.24-8.68,11.15-16.43,23.06-23.15,35.61-1.54,2.87-3.03,5.78-4.45,8.72C8.99,173.88,0,210.89,0,250h0c0,39.11,8.99,76.12,25,109.08,24.5,50.45,65.47,91.41,115.92,115.92,32.97,16.01,69.97,25,109.08,25h0c39.11,0,76.12-8.99,109.08-25,83.41-40.52,140.92-126.04,140.92-225h0c0-98.96-57.5-184.49-140.92-225Zm115.92,225c0,124.26-100.74,225-225,225h0c-124.26,0-225-100.74-225-225h0c0-16.1,1.71-31.81,4.92-46.95.31-1.47.63-2.94.97-4.39,2.31-9.88,5.27-19.5,8.83-28.83,3.43-9,7.42-17.73,11.94-26.13,2.1-3.9,4.31-7.74,6.62-11.5,7.86-12.77,16.97-24.7,27.15-35.61.52-.56,1.04-1.13,1.56-1.68,1.49-1.57,3.01-3.1,4.54-4.63,2.03-2.02,4.11-4,6.22-5.93,1.17-1.07,2.34-2.13,3.53-3.18,4.19-3.69,8.51-7.23,12.97-10.61.05-.04.1-.08.15-.11,3.86-2.92,7.82-5.71,11.87-8.39,11.21-7.4,23.12-13.82,35.61-19.15,3.9-1.66,7.86-3.21,11.87-4.66,18.6-6.7,38.32-11.03,58.83-12.6,3.7-.28,7.42-.47,11.16-.58,2.08-.06,4.17-.09,6.27-.09h0c4.16,0,8.29.12,12.4.34,95.31,5.18,174.84,69.67,202.31,157.21,3.89,12.39,6.74,25.25,8.44,38.46,1.22,9.49,1.85,19.16,1.85,28.98h0Z"/>
  </g>
</svg>