<?xml version="1.0" encoding="UTF-8"?>
<svg id="Layer_1" data-name="Layer 1" xmlns="http://www.w3.org/2000/svg" viewBox="0 0 500 500">
  <defs>
    <style>
      .cls-1 {
        fill: #bd3d44;
      }

      .cls-2 {
        fill: #fff;
      }

      .cls-3 {
        fill: #a9e2b0;
      }

      .cls-4 {
        fill: #192f5d;
      }
    </style>
  </defs>
  <rect class="cls-4" x="48.5" y="48.5" width="403" height="403" rx="201.5" ry="201.5"/>
  <path class="cls-3" d="m250,500c-66.78,0-129.56-26-176.78-73.22C26,379.56,0,316.78,0,250S26,120.44,73.22,73.22C120.44,26,183.22,0,250,0s129.56,26,176.78,73.22c47.22,47.22,73.22,110,73.22,176.78s-26,129.56-73.22,176.78c-47.22,47.22-110,73.22-176.78,73.22Zm0-475C125.93,25,25,125.93,25,250s100.93,225,225,225,225-100.93,225-225S374.07,25,250,25Z"/>
  <path class="cls-1" d="m409.24,90.76c-42.41-42.41-98.79-65.76-158.76-65.76h-.96c-59.97,0-116.35,23.35-158.76,65.76C48.35,133.17,25,189.55,25,249.52v.96c0,59.97,23.35,116.35,65.76,158.76,42.41,42.41,98.79,65.76,158.76,65.76h.96c59.97,0,116.35-23.35,158.76-65.76,42.41-42.41,65.76-98.79,65.76-158.76v-.96c0-59.97-23.35-116.35-65.76-158.76Zm42.12,159.24c0,111.03-90.33,201.36-201.36,201.36S48.64,361.03,48.64,250,138.97,48.64,250,48.64s201.36,90.33,201.36,201.36Z"/>
  <path class="cls-2" d="m365.2,195.25c-6.15-16.66-16.36-28.56-30.65-35.71-14.28-7.14-34.72-10.71-61.29-10.71s-46.92,3.67-59.81,11.01c-12.9,7.35-23.91,21.33-33.03,41.95h-4.17V37c-17.78,6.16-34.54,14.48-49.99,24.65v176.76h-22.63v30.93h22.63v35.12h-22.43v30.93h22.43v102.95c15.44,10.17,32.21,18.49,49.99,24.65v-127.6h75.59v-30.93h-75.59c.02-13.06.54-24.76,1.55-35.12h104.14v-30.93h-98.53c.09-.3.18-.61.27-.9,4.96-15.86,13.19-27.17,24.7-33.92,11.5-6.74,27.97-10.12,49.39-10.12,17.45,0,30.94,2.18,40.47,6.55,9.52,4.37,16.37,11.71,20.53,22.02,4.17,10.32,6.25,24.99,6.25,44.04v196.5c17.57-6.2,34.13-14.51,49.39-24.63v-170.69c0-31.33-3.08-55.34-9.22-72.01Z"/>
</svg>