<?xml version="1.0" standalone="no"?>
<!DOCTYPE svg PUBLIC "-//W3C//DTD SVG 20010904//EN"
 "http://www.w3.org/TR/2001/REC-SVG-20010904/DTD/svg10.dtd">
<svg version="1.0" xmlns="http://www.w3.org/2000/svg"
 width="1586.000000pt" height="1124.000000pt" viewBox="0 0 1586.000000 1124.000000"
 preserveAspectRatio="xMidYMid meet">

<g transform="translate(0.000000,1124.000000) scale(0.100000,-0.100000)"
fill="#000000" stroke="none">
<path d="M2550 10958 c-35 -156 -66 -289 -70 -295 -3 -7 -155 -127 -336 -265
l-331 -253 -139 -54 -139 -54 -155 -175 c-145 -164 -169 -185 -381 -349 -205
-159 -255 -192 -545 -360 -175 -102 -322 -188 -326 -191 -7 -8 -131 -692 -126
-697 19 -17 152 -74 160 -69 6 4 8 3 5 -3 -8 -13 291 -158 489 -236 l161 -64
264 165 264 164 509 -116 508 -115 62 31 c33 17 148 82 254 145 189 112 235
134 227 110 -6 -17 61 -91 70 -78 3 6 -1 14 -9 17 -9 3 -13 10 -10 15 3 5 20
-6 39 -24 35 -33 40 -54 6 -23 -10 10 -21 13 -24 9 -3 -5 37 -209 89 -453 81
-382 108 -489 190 -756 l96 -310 -77 -180 -76 -179 -70 -484 c-38 -267 -69
-495 -69 -507 0 -12 45 -76 109 -155 60 -73 108 -136 106 -139 -2 -4 -159 -78
-348 -166 -190 -87 -342 -163 -339 -168 3 -5 0 -6 -6 -2 -6 3 -59 -17 -119
-45 -59 -28 -205 -84 -323 -124 l-216 -72 -272 -214 c-149 -118 -271 -218
-272 -223 0 -6 99 -237 220 -515 l220 -506 105 -559 c58 -308 106 -560 108
-561 1 -1 98 -68 215 -150 l213 -149 291 -309 292 -309 12 33 c6 19 66 184
133 367 67 183 121 337 121 343 0 5 -75 95 -167 199 l-167 190 -97 0 c-84 0
-97 2 -101 18 -3 9 -68 233 -146 497 l-140 480 -32 283 c-17 156 -29 286 -26
289 3 3 79 12 168 19 90 7 486 41 881 75 395 33 720 59 721 57 2 -1 -5 -156
-15 -343 l-18 -340 -86 -239 c-47 -132 -84 -245 -83 -252 2 -7 62 -82 135
-167 98 -116 140 -157 165 -165 18 -6 310 -93 648 -193 l615 -182 223 -24 223
-24 237 76 c145 47 338 119 499 187 l261 111 -21 58 c-21 54 -35 70 -215 234
-191 172 -194 174 -220 161 -15 -8 -121 -69 -237 -136 l-209 -122 -326 23
-325 22 -335 144 c-184 79 -339 148 -343 152 -5 5 54 134 131 287 76 154 196
406 267 562 l128 283 161 -7 c142 -6 276 1 1131 61 l970 67 87 31 c48 17 85
35 82 39 -3 4 1 6 8 3 18 -7 1480 550 1470 560 -4 5 -2 5 5 2 6 -4 46 6 89 23
43 16 90 30 104 30 22 0 51 -31 178 -194 151 -194 151 -194 237 -241 47 -25
90 -43 97 -39 7 5 8 3 3 -6 -6 -10 -4 -12 9 -7 9 4 15 3 12 -1 -3 -5 21 -21
53 -37 55 -26 74 -46 297 -317 130 -159 242 -292 248 -295 6 -4 4 2 -4 13 -14
17 -14 18 2 6 9 -8 15 -19 12 -26 -3 -7 3 -19 12 -27 15 -12 17 -12 9 0 -6 10
-4 12 4 7 7 -5 10 -10 7 -13 -3 -3 1 -18 10 -32 8 -14 90 -246 183 -516 143
-416 166 -491 152 -496 -9 -3 -99 -25 -201 -49 -102 -23 -186 -43 -187 -44 -2
-2 -16 -81 -33 -177 -26 -147 -29 -189 -24 -269 l7 -96 -119 -76 c-66 -41
-202 -121 -303 -178 -102 -56 -226 -131 -276 -167 l-92 -65 -119 -275 c-65
-151 -119 -279 -120 -286 -1 -7 -66 -193 -144 -415 -78 -222 -140 -405 -137
-408 5 -5 818 133 825 140 1 2 10 109 18 237 l15 234 121 251 120 251 114 51
114 50 0 -110 c0 -105 1 -109 20 -103 11 4 102 28 203 55 l182 49 132 138 c73
76 135 145 138 154 3 9 -2 35 -10 59 -8 24 -12 47 -8 50 5 4 78 37 163 75 206
90 310 166 444 324 112 133 105 98 73 382 l-23 196 143 79 c180 99 207 127
267 268 l47 109 -133 311 c-96 225 -160 359 -231 483 -81 142 -96 176 -88 191
6 11 61 100 122 198 l112 179 137 460 137 460 12 370 c7 204 13 378 14 387 2
22 19 6 21 -19 1 -10 24 -52 53 -93 40 -58 91 -109 221 -220 l170 -145 122
-222 c68 -122 128 -219 133 -216 6 3 7 1 3 -6 -4 -6 4 -31 18 -55 28 -47 -5
-32 444 -207 115 -45 174 -77 435 -242 l302 -190 200 -61 200 -61 280 9 280 8
235 136 c129 75 236 137 238 138 6 4 142 338 142 349 0 5 -51 25 -114 44
l-114 33 -180 187 -180 187 -115 271 -115 271 -137 183 c-76 101 -143 189
-151 195 -7 6 -58 18 -113 28 -91 16 -123 28 -314 121 l-213 104 -200 247
-199 246 -125 63 -125 62 -230 27 c-441 50 -544 56 -876 46 l-304 -10 -226
-77 -226 -77 -559 276 -559 277 -305 6 -305 7 -480 -96 -480 -95 -603 -30
-602 -29 -103 45 c-56 25 -103 47 -104 47 -1 1 32 25 75 54 42 29 85 59 96 67
18 13 15 20 -53 136 -53 89 -120 179 -250 333 -97 116 -267 324 -377 461
l-200 251 -12 69 c-7 41 -18 75 -29 85 -10 10 -101 91 -203 182 -194 173 -334
283 -349 274 -5 -3 -15 2 -22 12 -13 16 -13 16 5 2 11 -8 17 -10 14 -5 -3 6
-44 37 -91 69 -82 58 -86 63 -168 198 -46 77 -88 143 -94 147 -5 5 -93 52
-195 106 -102 54 -198 110 -215 125 -61 55 -916 517 -1074 579 -65 26 -143 40
-526 96 l-450 66 -179 -65 c-99 -36 -183 -63 -186 -61 -4 2 -18 40 -31 85 -13
44 -27 80 -30 80 -3 0 -17 -36 -29 -80 -13 -45 -26 -83 -30 -85 -4 -2 -67 135
-140 305 -74 171 -136 310 -140 310 -3 0 -34 -127 -70 -282z m225 -93 c81
-187 149 -347 152 -355 3 -8 -68 121 -157 288 l-162 303 7 56 c4 30 8 53 10
51 2 -1 69 -156 150 -343z m218 -197 c15 -46 15 -48 -4 -58 -18 -10 -19 -7
-19 51 0 71 1 71 23 7z m3307 -1383 c7 -8 8 -15 2 -15 -5 0 -15 7 -22 15 -7 8
-8 15 -2 15 5 0 15 -7 22 -15z m71 -62 l34 -36 -42 33 c-24 18 -43 35 -43 37
0 12 21 -2 51 -34z m-3367 -414 c-19 -52 -45 -121 -56 -154 -12 -33 -25 -61
-30 -63 -4 -2 -8 -16 -8 -32 0 -15 -7 -33 -15 -40 -8 -7 -13 -16 -10 -20 3 -5
1 -11 -5 -15 -5 -3 -10 -19 -10 -35 0 -16 -4 -32 -10 -35 -5 -3 -10 -15 -10
-26 0 -10 -5 -19 -11 -19 -5 0 -7 -5 -4 -10 7 -11 4 -11 -105 15 -30 7 -85 19
-122 26 -38 7 -68 15 -68 18 0 3 -12 6 -27 7 -16 1 -57 7 -92 15 l-64 14 36
28 c20 15 40 27 46 27 6 0 11 5 11 11 0 5 5 7 10 4 6 -3 10 -2 10 3 0 10 102
78 113 74 4 -1 7 2 7 7 0 9 328 240 355 250 5 2 12 7 15 10 15 19 66 49 73 42
4 -4 -9 -50 -29 -102z m-291 -441 l107 -23 -402 -97 c-222 -53 -404 -96 -405
-94 -1 1 72 67 162 148 l165 145 132 -28 c73 -15 181 -38 241 -51z m-1448 -68
c48 -48 64 -71 54 -74 -39 -14 -654 -184 -656 -182 -4 3 519 326 527 326 3 0
37 -31 75 -70z m297 -36 c179 -54 325 -100 323 -102 -1 -2 -88 9 -191 23 -104
15 -199 24 -211 22 -12 -2 -20 -1 -18 3 3 4 -23 11 -57 14 -60 7 -64 10 -132
78 -39 38 -64 68 -56 65 8 -2 162 -49 342 -103z m1308 29 c0 -3 -10 2 -22 13
-13 10 -17 12 -10 4 16 -19 15 -30 -3 -30 -8 0 -15 -5 -15 -12 0 -6 -3 -9 -6
-5 -4 3 -13 0 -20 -8 -8 -8 -22 -11 -31 -8 -10 4 -14 2 -9 -5 3 -6 -3 -14 -16
-18 -13 -4 -27 -12 -33 -19 -18 -22 -104 -65 -110 -56 -6 11 35 42 47 35 4 -3
8 0 8 6 0 6 5 8 12 4 7 -4 8 -3 4 4 -4 7 9 16 35 23 33 10 38 14 23 20 -16 6
-16 8 -3 8 9 1 20 8 23 17 4 9 9 14 13 10 3 -3 13 3 20 14 8 11 18 18 23 15 5
-3 15 3 21 13 12 19 12 19 30 1 11 -11 19 -22 19 -26z m-113 -4 c-32 -23 -54
-45 -51 -51 4 -7 2 -8 -4 -4 -6 4 -59 -28 -117 -70 -104 -76 -125 -95 -82 -74
20 10 21 10 4 -4 -11 -8 -25 -12 -31 -10 -7 3 -19 -2 -26 -11 -7 -8 -19 -15
-26 -15 -8 0 -14 -3 -14 -7 0 -5 -12 -16 -25 -26 -23 -16 -27 -16 -62 -2 -20
9 -43 13 -50 10 -8 -2 -12 -1 -9 4 3 4 -53 30 -124 57 -70 27 -123 52 -117 55
7 4 64 19 127 33 63 14 232 55 375 90 143 36 267 65 275 65 8 1 -11 -17 -43
-40z m-1459 -84 c-3 -3 -112 -72 -243 -154 l-238 -148 -41 23 c-22 13 -45 20
-50 17 -6 -4 -8 -2 -3 2 4 5 -14 21 -40 36 -27 16 -46 32 -44 36 3 6 623 188
655 192 5 0 7 -1 4 -4z m432 -35 c84 -12 162 -19 172 -17 10 3 16 1 12 -4 -3
-5 10 -9 28 -9 30 0 329 -109 302 -110 -13 0 -715 159 -729 165 -5 3 6 3 25 0
19 -2 105 -14 190 -25z m-1354 -61 c129 -53 158 -69 124 -64 -36 4 -320 132
-299 134 3 1 81 -31 175 -70z m2214 33 c0 -4 -13 -16 -30 -25 -35 -21 -40 -13
-7 14 24 20 37 24 37 11z m-2035 -112 c-4 -6 5 -10 20 -10 25 0 120 -48 112
-56 -2 -2 -41 11 -87 30 -59 23 -78 35 -65 39 11 2 21 5 23 6 2 0 0 -3 -3 -9z
m7300 -705 c72 -9 160 -18 198 -22 37 -3 67 -10 67 -15 0 -4 -10 -6 -22 -4
-13 3 -99 10 -193 16 -93 6 -177 14 -185 17 -8 2 -69 6 -134 9 -66 2 -121 6
-124 9 -12 11 271 4 393 -10z m428 -52 c-7 -2 -21 -2 -30 0 -10 3 -4 5 12 5
17 0 24 -2 18 -5z m6364 -1009 c-3 -3 -12 -4 -19 -1 -8 3 -5 6 6 6 11 1 17 -2
13 -5z m-1854 -678 c53 -37 97 -69 97 -72 0 -2 -13 -4 -29 -4 -23 0 -55 22
-145 101 -64 55 -116 103 -116 106 0 2 21 -11 48 -30 26 -18 91 -64 145 -101z
m205 -293 c45 -114 80 -209 78 -210 -2 -2 -50 81 -106 184 -57 103 -110 198
-118 211 -14 21 -13 22 25 22 l40 0 81 -207z m-3248 -291 c0 -5 -31 -30 -70
-56 -39 -27 -67 -53 -63 -59 3 -6 1 -7 -5 -3 -11 7 -48 -10 -67 -30 -8 -9
-116 -85 -151 -107 -7 -4 -22 19 -39 61 -15 37 -36 85 -46 108 -31 67 -60 60
310 79 40 2 76 7 79 10 9 8 52 6 52 -3z m3660 -53 c51 -27 65 -38 45 -34 -148
25 -272 47 -280 49 -8 2 102 20 150 24 6 1 44 -17 85 -39z m-4112 -30 c12 -29
19 -56 16 -60 -3 -5 -1 -9 4 -9 10 0 58 -108 51 -115 -11 -10 -152 -43 -164
-38 -13 4 -20 -7 -16 -29 0 -4 -5 -5 -13 -2 -7 3 -161 -40 -341 -96 -180 -56
-329 -99 -332 -97 -5 6 111 77 126 77 6 0 11 4 11 9 0 10 145 103 156 101 4
-1 10 2 13 7 10 14 65 48 74 45 4 -1 10 5 13 13 4 8 12 15 20 15 8 0 14 5 14
12 0 6 3 9 6 5 3 -3 15 3 27 14 11 10 27 19 34 19 7 0 13 4 13 9 0 8 32 24 52
26 4 0 16 10 27 22 24 25 137 97 146 92 4 -2 11 4 16 14 15 27 23 21 47 -34z
m4137 -12 c85 -17 109 -26 107 -37 -3 -11 0 -12 8 -4 8 8 73 -16 245 -90 128
-55 233 -102 232 -103 -2 -1 -81 18 -176 42 l-174 43 -61 59 c-33 32 -44 39
-23 17 22 -24 34 -44 29 -48 -6 -3 -16 -1 -24 6 -7 7 -24 15 -38 17 -14 1 -38
10 -55 19 -16 9 -36 17 -43 18 -22 4 -232 87 -232 91 0 7 76 -5 205 -30z
m-4290 -258 c-42 -19 -1339 -509 -1341 -506 -5 4 661 307 675 307 7 0 10 4 7
9 -4 5 2 7 11 5 10 -2 160 41 333 95 299 94 361 112 315 90z m759 -115 c3 -8
2 -12 -4 -9 -6 3 -10 10 -10 16 0 14 7 11 14 -7z m52 -71 c10 -16 16 -28 14
-28 -2 0 11 -16 29 -35 29 -32 30 -36 14 -47 -9 -7 -13 -13 -9 -13 5 0 3 -7
-4 -15 -11 -13 -10 -14 4 -9 9 3 16 12 16 20 0 8 4 14 9 14 15 0 33 -29 25
-41 -4 -8 -3 -9 4 -5 7 4 12 1 12 -8 0 -8 9 -20 20 -26 11 -6 19 -14 18 -18
-1 -4 3 -17 10 -28 11 -20 7 -34 -8 -34 -4 0 -20 11 -35 24 -16 14 -32 23 -36
21 -8 -6 -40 29 -43 47 -1 7 -4 18 -8 23 -21 33 -44 115 -36 123 6 6 6 12 -1
16 -6 4 -11 1 -12 -6 -1 -15 -17 21 -18 40 -1 21 16 13 35 -15z m-4283 -75
c-15 -29 -31 -55 -34 -58 -3 -3 -9 -17 -12 -32 -4 -15 -13 -33 -20 -40 -8 -7
-17 -25 -20 -40 -4 -15 -13 -33 -20 -40 -8 -7 -17 -26 -21 -42 -4 -16 -14 -35
-22 -43 -8 -8 -11 -19 -8 -25 5 -8 -1 -9 -17 -4 -13 4 -37 10 -54 13 -16 2
-76 13 -133 24 -57 10 -106 19 -110 19 -12 1 131 91 161 102 15 5 27 14 27 19
0 5 6 9 14 9 8 0 17 7 20 16 3 8 10 12 16 9 5 -3 10 -1 10 4 0 6 6 11 13 11 7
0 28 13 47 30 19 16 42 29 50 30 8 0 26 12 39 25 12 14 27 22 32 19 5 -3 9 -1
9 5 0 8 44 39 58 41 2 0 -9 -24 -25 -52z m2693 30 c5 -7 3 -8 -6 -3 -7 4 -15
3 -19 -2 -6 -11 -105 -63 -118 -63 -4 0 -2 4 6 9 16 10 6 31 -15 31 -10 0 -14
-8 -12 -22 3 -23 -30 -48 -65 -48 -10 0 -20 -7 -24 -16 -3 -8 -12 -13 -19 -10
-8 3 -14 1 -14 -4 0 -6 -9 -10 -20 -10 -11 0 -20 -5 -20 -11 0 -8 -5 -7 -15 1
-9 7 -18 10 -22 6 -3 -3 -1 -6 5 -6 7 0 12 -5 12 -11 0 -5 -4 -7 -10 -4 -5 3
-10 1 -10 -4 0 -6 -8 -11 -18 -11 -10 0 -24 -6 -31 -12 -11 -10 -12 -10 -7 -1
5 9 2 11 -8 7 -9 -3 -16 -1 -16 5 0 6 -4 11 -10 11 -5 0 -10 -7 -10 -15 0 -8
-8 -15 -17 -16 -12 0 -13 -2 -5 -6 7 -3 19 0 26 7 8 6 17 7 20 2 3 -5 -10 -16
-29 -25 -19 -9 -35 -13 -35 -8 0 5 -9 11 -20 14 -11 3 -20 1 -20 -4 0 -5 8 -9
18 -9 15 -1 15 -2 -3 -16 -15 -11 -33 -14 -67 -10 -29 4 -49 2 -53 -4 -4 -6
-1 -11 6 -9 30 4 46 -2 46 -15 0 -12 -5 -13 -19 -5 -15 8 -24 7 -36 -4 -13
-12 -22 -13 -37 -5 -18 10 -18 10 -7 -4 15 -19 2 -31 -22 -22 -9 3 -16 1 -16
-5 0 -6 -7 -11 -15 -11 -8 0 -15 -4 -15 -10 0 -5 -4 -10 -9 -10 -6 0 -6 12 -1
30 6 19 5 42 -2 62 -10 29 -12 30 -20 12 -6 -14 -7 -10 -4 13 4 24 2 31 -8 27
-13 -5 -31 24 -21 34 3 3 5 0 5 -6 0 -7 5 -12 10 -12 6 0 10 10 10 21 0 16 -5
20 -20 16 -16 -4 -18 -2 -10 12 6 12 5 22 -3 31 -9 10 -9 11 1 6 6 -4 12 -3
12 1 0 18 162 22 168 4 2 -7 8 -6 17 2 9 9 10 14 1 20 -6 5 9 6 33 4 24 -3 48
-11 52 -19 7 -10 9 -9 9 3 0 9 7 19 15 23 8 3 15 1 15 -4 0 -6 -4 -10 -10 -10
-5 0 -6 -8 -3 -17 4 -11 8 -12 11 -5 2 7 19 12 38 12 34 0 48 22 22 34 -7 3 8
5 35 3 35 -2 46 1 42 10 -3 9 7 13 30 13 32 0 35 -2 35 -30 0 -20 5 -30 15
-30 9 0 15 9 15 25 0 14 -4 25 -10 25 -5 0 -10 4 -10 8 0 4 16 6 35 4 19 -2
32 -8 29 -13 -3 -5 4 -9 15 -9 10 0 22 -6 25 -12 3 -7 3 -3 0 10 -4 16 -1 22
10 22 9 0 16 5 16 11 0 8 17 10 51 7 41 -4 49 -3 44 10 -4 11 1 13 20 10 14
-3 28 -1 31 3 7 12 22 11 30 -3z m-856 -160 c5 -16 5 -28 0 -28 -11 0 -28 52
-22 70 5 13 6 13 9 0 3 -8 8 -27 13 -42z m-39 23 c0 -9 2 -31 3 -48 3 -27 0
-33 -15 -33 -17 0 -19 7 -18 48 2 33 6 49 16 49 7 0 13 -7 14 -16z m-48 -8
c-7 -2 -21 -2 -30 0 -10 3 -4 5 12 5 17 0 24 -2 18 -5z m-91 -15 c-7 -7 -12
-22 -12 -35 0 -13 -4 -23 -10 -23 -5 0 -10 7 -10 15 0 8 -8 15 -19 15 -10 0
-23 6 -29 13 -9 10 -3 14 31 16 23 1 43 4 46 7 2 2 7 4 10 4 3 0 0 -5 -7 -12z
m-109 -25 c-7 -2 -21 -2 -30 0 -10 3 -4 5 12 5 17 0 24 -2 18 -5z m-60 -10
c-7 -2 -13 -12 -14 -21 0 -14 -2 -13 -9 3 -8 19 -9 19 -9 -2 -1 -21 -21 -34
-21 -14 0 5 -2 15 -5 23 -4 9 6 14 32 15 21 1 32 -1 26 -4z m2862 -13 c3 -6
-1 -7 -9 -4 -18 7 -21 14 -7 14 6 0 13 -4 16 -10z m45 -11 c0 -5 6 -9 13 -9 6
0 36 -15 64 -33 39 -24 68 -55 114 -122 34 -50 64 -97 67 -105 3 -8 11 -19 17
-25 17 -14 167 -235 161 -235 -3 0 -9 0 -13 0 -5 0 -8 3 -8 8 0 15 -43 61 -50
54 -5 -4 -5 -2 -2 4 4 6 -2 19 -13 29 -11 10 -20 22 -20 26 0 5 -15 24 -32 43
-90 95 -151 170 -150 182 0 5 -13 17 -29 27 -16 11 -29 22 -29 26 0 4 -23 32
-50 62 -60 64 -78 91 -55 83 8 -4 15 -10 15 -15z m-3030 -9 c0 -10 -41 -15
-92 -12 -22 2 -26 -1 -21 -15 4 -11 8 -13 11 -5 2 7 9 9 15 5 6 -4 28 -6 49
-4 l38 3 0 -46 0 -46 -80 0 c-79 0 -80 0 -80 25 0 14 5 25 11 25 7 0 9 10 5
28 -5 20 -4 23 4 12 8 -12 10 -11 10 7 0 22 3 23 108 31 12 1 22 -2 22 -8z
m3117 -16 c2 -10 0 -13 -3 -6 -3 6 -12 12 -20 12 -9 0 -12 5 -9 11 10 15 30 5
32 -17z m-3280 -9 c0 -11 -11 -15 -39 -15 -37 0 -74 -14 -91 -35 -5 -6 -7 -3
-3 8 3 11 0 17 -10 17 -11 0 -14 -6 -10 -16 3 -8 2 -12 -4 -9 -6 3 -10 12 -10
19 0 10 23 16 75 21 41 4 77 11 81 16 8 13 11 11 11 -6z m663 0 c0 -8 -8 -15
-17 -14 -13 0 -14 2 -4 6 11 5 11 7 0 14 -11 7 -10 9 4 9 9 0 17 -7 17 -15z
m-866 -40 c-4 -9 -19 -15 -41 -15 -35 0 -73 -15 -85 -34 -4 -6 -6 -2 -6 9 1
12 9 22 17 23 77 10 102 15 107 23 9 14 14 10 8 -6z m863 -7 c-3 -8 -6 -5 -6
6 -1 11 2 17 5 13 3 -3 4 -12 1 -19z m53 2 c0 -5 -4 -10 -10 -10 -5 0 -10 5
-10 10 0 6 5 10 10 10 6 0 10 -4 10 -10z m-2280 -31 c52 -11 115 -23 140 -27
l45 -8 -81 -22 c-44 -12 -90 -22 -102 -22 -12 0 -22 -4 -22 -9 0 -5 -12 -11
-27 -14 -16 -3 -91 -23 -167 -46 -76 -22 -143 -38 -147 -35 -5 3 -9 1 -9 -4 0
-5 -12 -12 -27 -15 -16 -3 -37 -9 -48 -12 -14 -5 -12 1 10 19 17 14 35 26 42
26 6 0 13 4 15 9 6 18 243 180 263 180 11 0 63 -9 115 -20z m1187 -20 c1 -19
1 -20 -4 -4 -3 11 -10 24 -17 28 -7 6 -6 7 4 4 8 -2 16 -14 17 -28z m1063 15
c0 -3 -7 -12 -15 -20 -8 -9 -15 -13 -15 -11 0 3 -3 12 -6 21 -4 12 0 16 15 16
12 0 21 -3 21 -6z m-1117 -11 c-7 -2 -21 -2 -30 0 -10 3 -4 5 12 5 17 0 24 -2
18 -5z m-83 -13 c0 -3 -18 -6 -40 -6 -22 0 -36 2 -30 6 13 8 70 8 70 0z m-837
-29 c-2 -6 3 -10 10 -8 6 1 11 -5 9 -13 -2 -8 0 -12 4 -7 11 10 65 -44 57 -57
-3 -6 -3 -8 2 -4 4 4 15 2 24 -4 10 -8 9 -4 -3 10 -12 13 -14 22 -7 22 7 0 9
5 5 11 -5 8 -8 8 -13 0 -5 -7 -22 5 -47 30 l-39 41 115 -7 c63 -4 175 -7 247
-8 96 -2 134 -5 138 -14 4 -12 -5 -15 -52 -17 -10 -1 -21 -4 -24 -9 -3 -4 -21
-9 -40 -10 -19 -1 -37 -6 -40 -10 -6 -8 -51 -17 -106 -20 -11 -1 -19 -5 -17
-8 8 -14 -86 -26 -191 -25 -347 4 -439 8 -416 17 13 5 36 11 50 12 14 2 36 9
49 16 13 7 30 10 37 7 8 -3 17 -1 20 4 4 6 19 10 34 10 15 0 31 4 37 9 12 12
136 51 149 47 6 -2 9 -9 8 -15z m547 -3 c0 -4 -7 -8 -15 -8 -8 0 -15 4 -15 8
0 5 7 9 15 9 8 0 15 -4 15 -9z m115 1 c33 -1 262 0 508 2 247 2 451 1 453 -2
4 -8 -180 -19 -313 -19 -68 0 -103 -4 -103 -11 0 -7 -25 -10 -75 -7 -41 2 -76
0 -77 -4 -2 -4 -77 -10 -168 -13 -179 -7 -211 -9 -340 -23 -138 -16 -310 -23
-275 -12 17 6 40 11 53 12 12 1 22 5 22 8 0 6 108 32 140 35 9 0 20 4 25 7 6
3 25 9 44 13 25 5 30 10 20 17 -10 7 -9 8 6 4 11 -3 47 -6 80 -7z m1083 4
c-10 -2 -26 -2 -35 0 -10 3 -2 5 17 5 19 0 27 -2 18 -5z m-3118 -163 c0 -5 -4
-10 -9 -10 -6 0 -13 5 -16 10 -3 6 1 10 9 10 9 0 16 -4 16 -10z m53 -7 c-7 -2
-21 -2 -30 0 -10 3 -4 5 12 5 17 0 24 -2 18 -5z m302 -3 l110 -7 -130 -2 c-71
-2 -134 -2 -140 -1 -5 1 -36 2 -67 2 -32 1 -58 5 -58 9 0 10 123 10 285 -1z
m-2089 -268 c-3 -3 -17 1 -31 8 -18 9 -22 16 -13 21 15 9 31 1 23 -12 -4 -5
-1 -9 4 -9 6 0 12 10 12 23 2 22 2 22 6 -1 3 -13 2 -26 -1 -30z m-96 -26 c0
-11 -19 -15 -25 -6 -3 5 1 10 9 10 9 0 16 -2 16 -4z m110 -25 c0 -9 -7 -26
-15 -37 -14 -18 -14 -17 -5 8 5 15 7 35 3 45 -4 11 -3 14 5 9 7 -4 12 -15 12
-25z m-103 -33 c-3 -8 -6 -5 -6 6 -1 11 2 17 5 13 3 -3 4 -12 1 -19z m23 -53
c0 -8 -2 -15 -4 -15 -2 0 -6 7 -10 15 -3 8 -1 15 4 15 6 0 10 -7 10 -15z m17
-37 c-3 -8 -6 -5 -6 6 -1 11 2 17 5 13 3 -3 4 -12 1 -19z m70 -65 c-2 -16 -4
-5 -4 22 0 28 2 40 4 28 2 -13 2 -35 0 -50z m-2 -63 c8 0 15 -4 15 -10 0 -12
-3 -12 -24 -4 -9 3 -16 12 -16 19 0 7 -7 18 -15 25 -13 11 -13 15 -3 21 9 6
15 -1 21 -21 4 -17 14 -30 22 -30z m10 -59 c-3 -5 -1 -12 5 -16 5 -3 10 2 10
11 0 10 3 15 6 11 4 -3 4 -14 0 -23 -5 -13 -9 -14 -21 -4 -13 11 -12 30 1 30
3 0 3 -4 -1 -9z m2592 -576 c95 -43 171 -80 170 -81 -2 -2 -107 36 -234 84
-206 77 -230 88 -222 104 11 20 -12 29 286 -107z m1679 -76 c69 -63 140 -127
157 -142 42 -37 22 -26 -158 86 l-150 93 2 39 c3 42 -1 39 -11 -8 -6 -24 -29
-38 -186 -117 -99 -50 -183 -90 -187 -90 -4 0 37 30 92 66 89 59 147 102 106
79 -10 -5 -12 -4 -7 4 4 6 11 9 15 6 5 -2 45 20 89 49 45 30 88 53 96 52 9 -1
72 -54 142 -117z m-361 -8 c-11 -10 -226 -154 -237 -159 -5 -2 -8 2 -8 10 0 8
55 46 123 86 118 69 141 81 122 63z m554 -180 c40 -27 58 -46 67 -73 7 -21 11
-38 8 -38 -6 0 -308 242 -334 267 -16 16 169 -95 259 -156z m-926 53 c79 -5
110 -11 114 -21 3 -8 4 -16 1 -18 -4 -4 -331 41 -358 50 -14 4 7 3 243 -11z
m4587 -404 c-17 -70 -28 -134 -25 -142 3 -8 -1 -21 -10 -28 -18 -15 -21 0 -3
18 9 9 9 12 -1 12 -11 0 -13 19 -8 93 4 50 9 146 12 212 4 66 9 127 12 135 3
8 16 -27 30 -79 l24 -94 -31 -127z m-54 15 c-12 -163 -14 -172 -16 -90 -3 112
-2 121 13 225 17 124 19 71 3 -135z m794 181 c0 -6 -363 -221 -374 -221 -24
-2 -46 -18 -39 -29 3 -6 3 -8 -2 -4 -5 5 -24 -4 -43 -19 -19 -14 -73 -41 -119
-58 -46 -17 -80 -35 -76 -39 4 -4 -1 -4 -11 0 -13 5 -17 4 -13 -3 5 -7 -1 -9
-15 -5 -14 3 -19 1 -14 -6 4 -7 2 -10 -6 -7 -7 3 -60 -13 -117 -35 -58 -22
-107 -37 -110 -35 -2 3 1 5 8 5 7 0 9 4 6 10 -4 6 1 7 11 3 12 -4 15 -3 10 5
-5 8 -1 10 10 5 13 -5 15 -3 9 7 -5 9 -4 11 3 6 13 -8 50 9 42 20 -3 3 6 13
20 22 l25 14 -25 -21 c-14 -11 -21 -21 -17 -21 5 0 132 63 283 141 152 78 277
139 280 136 3 -2 -18 -21 -46 -42 -27 -20 -50 -39 -50 -42 0 -3 15 6 33 19
144 109 185 135 254 164 43 18 79 33 81 33 1 1 2 -1 2 -3z m-286 -57 c-9 -10
-13 -19 -8 -20 5 0 20 -2 33 -3 13 -2 33 6 44 17 15 15 21 16 31 7 8 -10 8
-11 0 -7 -13 7 -38 -16 -28 -25 3 -3 -3 -5 -13 -4 -9 0 -18 -6 -18 -14 0 -11
-12 -15 -47 -14 -26 0 -46 -2 -45 -5 2 -7 -7 -11 -24 -11 -6 0 -3 7 6 16 20
21 13 29 -14 15 -14 -8 -22 -8 -27 1 -4 6 -3 8 3 5 6 -4 14 0 17 9 3 8 10 12
16 9 5 -3 10 -2 10 4 0 6 10 15 21 22 17 9 20 8 15 -3 -4 -7 1 -3 11 8 10 12
22 20 26 17 5 -3 1 -14 -9 -24z m-164 -89 c-12 -8 -10 -10 10 -11 14 -1 29 -1
35 1 5 1 1 -8 -10 -20 -13 -14 -27 -20 -43 -17 -16 3 -22 0 -18 -8 2 -7 -4
-15 -15 -18 -12 -3 -19 0 -19 9 0 8 -8 14 -17 14 -13 0 -9 6 12 19 17 10 33
14 36 9 3 -5 9 0 12 11 3 12 11 21 19 21 10 0 9 -3 -2 -10z m-100 -82 c0 -18
-2 -23 -11 -20 -5 1 -9 -3 -9 -9 0 -5 -5 -7 -10 -4 -8 5 -8 11 -1 19 6 7 9 15
6 18 -3 2 2 5 10 5 8 0 15 -4 15 -9z m-45 -30 c-4 -33 -4 -34 -15 -18 -6 10
-10 11 -10 3 0 -7 -4 -13 -10 -13 -5 0 -10 7 -10 15 0 8 7 15 15 15 8 0 15 5
15 10 0 6 4 10 9 10 4 0 7 -10 6 -22z m-66 -46 c-11 -2 -19 -8 -19 -13 0 -6
-4 -7 -10 -4 -5 3 -10 1 -10 -6 0 -7 -3 -9 -7 -6 -3 4 -15 0 -25 -10 -17 -15
-18 -15 -18 0 0 10 3 16 8 15 4 -2 17 7 30 20 13 13 30 21 38 18 7 -3 13 -2
13 2 -3 20 3 25 10 7 6 -15 4 -21 -10 -23z m-60 -96 c-5 -5 -517 -236 -539
-243 -30 -10 187 109 248 136 34 15 59 31 55 35 -4 4 -1 5 7 2 8 -4 60 12 115
33 94 37 124 46 114 37z m-7306 -120 c16 -12 9 -35 -95 -320 -61 -168 -113
-305 -114 -303 -1 1 24 133 57 292 33 160 58 298 55 308 -2 9 0 15 5 11 5 -3
9 6 9 19 0 13 3 27 6 30 7 6 39 -10 77 -37z m-170 -370 c-37 -185 -71 -336
-74 -336 -3 0 -18 45 -34 100 l-28 100 99 239 c54 132 100 238 102 236 2 -2
-27 -155 -65 -339z m6688 -73 c-108 -310 -102 -302 -96 -148 3 72 5 158 5 193
l0 62 82 60 c45 33 83 60 84 60 2 0 -32 -102 -75 -227z m-107 -128 l-7 -196
-99 -50 c-55 -28 -101 -49 -103 -47 -4 4 209 497 213 493 2 -2 0 -92 -4 -200z
m-169 -361 c14 -15 25 -23 25 -18 1 5 8 -4 16 -21 8 -16 12 -21 9 -11 -6 19
-5 19 15 1 21 -19 27 -45 9 -45 -5 0 -7 -4 -4 -10 4 -6 11 -5 19 3 8 6 12 16
9 20 -3 5 4 3 16 -5 22 -14 28 -28 11 -28 -5 0 -10 -7 -10 -15 0 -8 -4 -15
-10 -15 -5 0 -10 -7 -10 -16 0 -9 -5 -12 -12 -8 -7 4 -10 4 -6 -1 10 -11 -10
-45 -27 -45 -8 0 -15 -6 -15 -14 0 -8 -12 -28 -26 -45 -14 -17 -22 -31 -18
-31 5 0 -11 -17 -33 -39 -23 -21 -45 -50 -49 -65 -3 -14 -10 -23 -15 -20 -5 3
-10 0 -10 -5 -3 -21 -5 -26 -16 -46 -7 -11 -13 -14 -13 -7 0 7 -4 11 -10 7 -5
-3 -7 -11 -5 -18 3 -7 -5 -23 -17 -37 -26 -29 -68 -30 -68 -1 0 32 22 81 33
74 6 -3 7 -1 3 6 -4 7 0 28 9 47 9 19 14 38 11 42 -3 5 9 24 26 42 17 20 26
36 19 38 -18 6 -13 22 12 32 18 7 19 9 4 9 -11 1 -16 6 -13 14 3 6 9 20 12 30
5 13 13 17 30 13 13 -3 26 -1 30 6 4 6 3 8 -4 4 -6 -3 -13 -2 -16 3 -4 5 2 12
11 15 10 3 5 4 -10 2 -33 -4 -31 13 4 31 13 7 18 13 12 13 -7 0 -13 12 -13 26
0 14 4 23 10 19 6 -3 10 -1 10 5 0 6 4 9 9 5 6 -3 8 4 6 15 -3 16 1 20 25 20
22 0 28 4 24 15 -4 9 -19 15 -36 15 -17 0 -27 4 -23 10 11 17 35 11 60 -16z
m-61 -46 c-3 -4 -11 -8 -17 -7 -9 0 -9 2 0 5 7 3 9 13 6 22 -4 14 -3 14 5 2 6
-8 8 -18 6 -22z m533 -450 c-2 -18 -4 -6 -4 27 0 33 2 48 4 33 2 -15 2 -42 0
-60z m-30 30 c-3 -8 -6 -5 -6 6 -1 11 2 17 5 13 3 -3 4 -12 1 -19z m-20 -100
c-3 -8 -6 -5 -6 6 -1 11 2 17 5 13 3 -3 4 -12 1 -19z m-639 -30 c-2 -6 -11
-13 -19 -16 -11 -3 -11 -2 1 7 13 9 13 11 -2 11 -10 0 -18 -4 -18 -10 0 -5 -4
-10 -8 -10 -5 0 -9 6 -9 13 0 7 13 14 30 15 19 2 27 -2 25 -10z m682 -8 c0 -5
-2 -10 -4 -10 -3 0 -8 5 -11 10 -3 6 -1 10 4 10 6 0 11 -4 11 -10z m-721 -47
c-51 -58 -49 -56 -49 -39 0 9 5 16 11 16 6 0 9 6 6 14 -7 18 12 36 37 36 18 0
18 -2 -5 -27z"/>
<path d="M7548 4293 c7 -3 16 -2 19 1 4 3 -2 6 -13 5 -11 0 -14 -3 -6 -6z"/>
<path d="M7870 4239 c0 -5 5 -7 10 -4 6 3 10 8 10 11 0 2 -4 4 -10 4 -5 0 -10
-5 -10 -11z"/>
<path d="M7640 4121 c0 -6 4 -13 10 -16 6 -3 7 1 4 9 -7 18 -14 21 -14 7z"/>
<path d="M5570 4031 c0 -10 19 -25 25 -20 1 2 -3 10 -11 17 -8 7 -14 8 -14 3z"/>
<path d="M5650 3947 c0 -10 8 -17 18 -17 9 0 13 4 7 8 -5 4 -13 11 -17 16 -5
5 -8 2 -8 -7z"/>
<path d="M9550 600 c0 -5 5 -10 10 -10 6 0 10 5 10 10 0 6 -4 10 -10 10 -5 0
-10 -4 -10 -10z"/>
<path d="M9345 420 c4 -6 11 -8 16 -5 14 9 11 15 -7 15 -8 0 -12 -5 -9 -10z"/>
<path d="M9311 294 c0 -11 3 -14 6 -6 3 7 2 16 -1 19 -3 4 -6 -2 -5 -13z"/>
<path d="M9250 139 c0 -5 5 -7 10 -4 6 3 10 8 10 11 0 2 -4 4 -10 4 -5 0 -10
-5 -10 -11z"/>
</g>
</svg>
