<svg width="37" height="36" viewBox="0 0 37 36" fill="none" xmlns="http://www.w3.org/2000/svg">
<path d="M34.5412 27.1819C34.0887 26.8975 33.4734 26.4132 32.8587 25.6528C32.9024 24.6552 32.4593 24.0092 32.3944 23.9225L32.2051 23.6688L31.8948 23.5986C31.798 23.5762 31.6977 23.5644 31.598 23.5491C31.3128 22.8949 31.0865 22.2165 30.922 21.5221L30.7892 20.9681C31.0492 19.8947 31.0274 18.7724 30.7261 17.7099C31.893 17.6657 32.9867 17.9659 32.3909 19.4414C31.1343 22.5533 36.2031 25.1578 36.2031 25.1578C36.2031 25.1578 33.4156 20.7988 35.527 17.5565C36.7889 15.6186 32.7283 14.4847 29.9739 16.0805C29.2973 15.0806 28.3363 14.4464 27.2343 14.2865C27.9015 13.2807 27.8797 12.1893 27.2195 10.7888L27.2815 10.7304L27.1122 10.5516L27.0048 10.3393L26.9334 10.3711C26.2385 9.69152 23.1531 6.90408 19.4312 7.08991L19.1557 6.4162C19.5061 5.98673 19.7215 5.39149 19.7315 4.65997C20.1114 4.67767 20.358 4.60864 20.3669 4.37739C20.4624 2.05777 18.5817 0.100956 16.1665 0.00361703C13.7513 -0.0925422 11.7155 1.70853 11.6187 4.02756C11.6187 4.03818 11.6246 4.04467 11.6258 4.0547L11.6223 4.05587C11.3244 4.26943 10.5097 4.97322 10.5144 5.34606C9.55063 4.98185 8.53003 4.79112 7.49981 4.78267C6.77124 3.52199 5.95359 2.94149 5.95359 2.94149C5.90793 3.22604 5.8825 3.51347 5.87749 3.80161C5.30997 3.48659 4.88463 3.38866 4.80499 3.37273L3.84634 3.18749L3.7785 4.15321C3.7024 5.23633 3.98144 6.19498 4.14957 6.65808C3.80387 7.8875 2.4128 10.728 1.64353 12.2996C1.20934 13.1863 0.978674 13.6606 0.891363 13.8865C0.435344 15.0694 1.94676 16.2604 2.88829 16.8657L3.17854 17.0521L3.51834 16.9884C3.66051 16.9619 3.78322 16.9141 3.89059 16.8569C4.0015 16.9908 4.14898 17.0922 4.31829 17.1489C4.43097 17.186 4.54896 17.2061 4.66812 17.2061C5.28755 17.2061 5.68812 16.7265 6.07571 16.2628C6.33941 15.9472 6.63791 15.5897 6.94468 15.4233C7.59479 15.0705 8.13517 14.7178 8.56877 14.3603C8.39002 14.8723 8.16584 15.2924 8.11098 15.3932C6.8438 17.6952 7.50984 20.6979 7.90686 22.0176C6.75472 22.6447 4.92002 23.1001 4.21623 23.2382L3.64341 23.3503L3.53486 23.919C2.34614 30.1457 4.68877 32.4181 6.19015 33.2193C7.0019 33.6505 7.6756 33.7172 7.74994 33.7231L8.57348 33.7921L8.67908 32.9792L9.00296 30.4749L9.13038 29.4879L8.1269 29.5109C7.8622 29.5078 7.59881 29.4731 7.34229 29.4077C7.05971 29.3322 6.70516 29.19 6.61431 28.931C6.4332 28.4184 6.6031 27.2244 6.832 26.2522C7.16472 26.2746 7.49449 26.287 7.81955 26.287C8.29503 26.287 8.74456 26.2586 9.17935 26.2168C9.13362 26.2713 9.0864 26.3246 9.03776 26.3766C8.4024 27.0385 8.45609 27.701 8.5434 28.0373C8.72687 28.7346 9.33214 29.2124 9.81647 29.3611C10.1262 29.4549 12.06 29.6508 15.566 29.9445L15.9235 29.974L16.1972 29.7434C16.2019 29.7398 16.8166 29.2313 17.5535 28.9464C17.8632 28.8266 18.1399 28.7664 18.377 28.7664C18.4171 28.7664 18.4578 28.7682 18.4979 28.7723L19.9917 28.9163L19.3663 27.5636C19.2849 27.3878 18.5345 25.8244 17.3375 25.2292L16.8845 25.0038L16.465 25.2858C16.4503 25.2965 16.0946 25.5354 15.6497 25.8675C15.3855 26.0657 15.0445 26.3306 14.7283 26.6061L14.4657 26.53C14.9943 25.979 15.809 25.2493 16.9211 24.5278C17.1989 24.5083 17.4821 24.4953 17.7747 24.4953C18.1168 24.4953 18.4567 24.5136 18.7976 24.5378C18.4496 24.7856 18.249 24.9832 18.2065 25.1277C18.0773 25.5554 18.4024 25.8781 18.7599 25.9973L18.8201 26.0097C18.8372 26.012 19.2525 26.0598 19.9079 26.0598C20.5273 26.0598 21.4246 26.0138 22.4015 25.825C23.815 27.6698 25.6037 28.1075 26.9635 28.1075C27.7015 28.1075 28.3917 27.9824 28.9722 27.8225C28.3823 30.8212 29.3073 32.9255 29.991 33.995C30.4648 34.7336 30.9031 35.1253 30.9509 35.1678L31.2116 35.3973L31.5597 35.382C33.0493 35.3165 33.4321 33.2588 33.5141 32.6305L33.5773 32.1415L33.1826 31.8418C33.0024 31.7067 32.8359 31.5544 32.6853 31.3869C32.3137 30.975 32.0782 30.4586 32.011 29.908C32.2676 30.1569 32.5301 30.4017 32.8086 30.6324C33.2687 31.0176 33.7566 31.3645 34.2545 31.6607L35.1223 32.1757L35.4993 31.2454C35.5211 31.1917 36.0261 29.931 36.0627 28.4744L36.0786 27.8149L35.4391 27.6308C35.4391 27.6302 35.068 27.5158 34.5412 27.1819ZM30.6435 23.5025C30.5721 23.5048 30.4984 23.5054 30.4282 23.5084C30.3014 23.5137 30.1757 23.5202 30.05 23.5202C29.8571 23.5202 29.6695 23.5095 29.4625 23.437C29.771 23.1104 30.0356 22.7449 30.2494 22.3497C30.368 22.7609 30.5008 23.1432 30.6435 23.5025ZM25.9677 14.8263C24.6763 15.9566 21.3326 17.1442 21.299 17.156L20.9609 17.2751L21.1456 17.5778C21.7219 18.5234 21.9048 19.0962 21.9638 19.3682C21.7461 19.5346 21.2641 19.7965 20.3828 19.9015C20.3272 19.796 20.2699 19.6914 20.2111 19.5877C19.8159 18.8809 19.1545 17.6987 19.4761 16.9223C20.1114 15.3985 23.1732 12.8081 23.5142 12.5232L26.724 11.0991C27.5629 12.9202 27.0785 13.8559 25.9677 14.8263ZM19.3286 14.7685C19.4566 14.667 20.3863 14.165 21.4323 13.6104C20.9715 14.0509 20.5301 14.5111 20.1091 14.9897C19.7791 15.0079 19.4483 15.0055 19.1186 14.9826C19.1811 14.9018 19.2495 14.8363 19.3286 14.7685ZM18.9439 14.3296C18.751 14.4942 18.6024 14.6582 18.4814 14.903C18.2521 14.8623 18.0302 14.7876 17.8231 14.6812L19.7657 11.7911L22.513 12.3863C21.2465 13.0459 19.1628 14.1432 18.9439 14.3296ZM18.7263 6.84272L18.9522 7.47277C18.915 7.53118 18.6861 7.78131 18.6342 7.85623C18.6637 7.73588 18.7121 6.96779 18.7263 6.84272ZM19.5256 7.66096C22.6959 7.50758 25.4674 9.81186 26.3517 10.6283L23.3224 11.9716L19.4967 11.138L17.2974 14.4092H13.2664C13.2829 14.2676 13.2941 14.1125 13.2947 13.9296L13.2977 13.4889C14.1265 13.4075 15.6002 13.3108 16.6007 13.2547L16.8255 13.2423L17.6213 9.55052C18.6737 8.99067 19.3079 8.03262 19.5256 7.66096ZM16.1571 11.0171C15.9436 10.5714 15.7083 10.1365 15.4521 9.71393C15.5542 9.73812 15.661 9.75346 15.776 9.75346C16.1412 9.75346 16.5405 9.6278 17.0408 9.44551L16.8851 10.1682L16.1571 11.0171ZM16.6255 11.3705L16.5234 11.843C16.4892 11.7616 16.4627 11.6879 16.4261 11.6035L16.6255 11.3705ZM16.9913 4.14909C17.0379 4.15793 17.0862 4.16855 17.1322 4.17799C17.0921 4.38801 17.1069 4.61631 17.2025 4.82456C17.3635 5.17498 17.7198 5.15256 17.7198 5.15256C17.4915 4.85583 17.4361 4.52782 17.4449 4.2417C17.8266 4.32076 18.2106 4.40453 18.5723 4.48063C18.5758 4.4883 18.5758 4.4942 18.5782 4.50187L17.9534 6.18908L16.7063 4.40748C16.7842 4.32607 16.8821 4.23758 16.9913 4.14909ZM15.999 4.42517L17.6125 6.73123L17.9222 8.20842C17.9222 8.20842 17.3794 8.66562 17.1712 8.77712C16.852 8.9482 16.1117 9.17415 15.7754 9.17415C15.4385 9.17415 15.2126 9.00719 15.0398 8.56828C14.8663 8.68981 14.5578 8.7199 14.4339 8.67801C14.2333 8.61017 14.274 8.38599 14.366 8.17421C14.4587 8.02672 14.5536 7.89576 14.6162 7.81789C14.5666 7.89458 14.5029 8.00195 14.4451 8.11462C14.3118 8.37597 14.4392 8.47448 14.7224 8.12229C14.8563 7.95711 15.1147 7.38193 15.1147 7.38193C15.1147 7.38193 14.3478 7.97717 13.933 7.99546C13.7867 8.00195 13.7885 7.77305 13.5608 7.54416C13.4752 7.59784 13.3225 7.63029 13.1655 7.63029C12.8434 7.63029 12.506 7.49106 12.7083 7.10997C12.8434 6.85629 13.0965 6.37314 13.0322 6.18554C12.9461 5.93364 12.7107 5.69648 12.5673 5.303C13.6982 5.04932 15.084 4.67826 15.999 4.42517ZM11.9833 5.42629C12.0842 5.73365 12.2275 5.96195 12.3438 6.14365C12.378 6.19793 12.4128 6.25279 12.4381 6.29881C12.4312 6.32049 12.4235 6.34194 12.4151 6.36311C11.9863 6.05846 11.5308 5.79328 11.0542 5.57083C11.2854 5.55313 11.604 5.5018 11.9833 5.42629ZM4.6398 4.2128C4.6398 4.2128 5.77307 4.43225 6.86326 5.73542C6.86326 5.73542 7.22254 5.6428 7.81601 5.6428C8.79058 5.6428 10.397 5.90945 12.07 7.23326C12.0482 7.4651 12.1149 7.64621 12.1786 7.74768C12.3538 8.03203 12.6983 8.19544 13.1248 8.20547C14.0882 9.24494 15.0315 10.7033 15.8568 12.7179C15.0893 12.7645 13.9543 12.84 13.2139 12.9149C13.1647 12.8046 13.0955 12.7044 13.0098 12.6194C12.8207 12.4331 12.5655 12.3292 12.3001 12.3303L11.9945 12.3291H11.9886C11.7302 12.3291 11.4895 12.4235 11.309 12.5875C10.6306 12.7132 10.1982 13.1344 10.0991 13.7627C9.93918 13.7308 9.77872 13.7013 9.62062 13.6647C9.70498 13.0659 9.65778 12.4725 9.33922 11.9982C9.34063 11.9968 9.34182 11.9952 9.34276 11.9934C8.94986 11.1428 8.62068 10.3416 8.11098 9.61541C7.64319 8.94471 7.11304 8.31975 6.52759 7.74886C5.94651 7.18606 5.31882 6.84331 5.0504 6.59554C5.05158 6.59613 4.54836 5.50475 4.6398 4.2128ZM12.7077 13.3096L12.7042 13.9267C12.7001 14.7909 12.7001 14.8411 11.6836 14.8411L11.4866 14.8405C10.6636 14.8381 10.6672 14.1626 10.6672 14.0417C10.6707 13.3037 11.2087 13.1609 11.6187 13.1338C11.6897 12.9951 11.8328 12.9083 11.9886 12.9096L11.991 12.9096L12.2983 12.9108C12.4057 12.9087 12.5094 12.9497 12.5863 13.0247C12.6633 13.0996 12.707 13.2022 12.7077 13.3096ZM3.3567 16.1483C3.3567 16.1483 1.4223 14.9054 1.69721 14.1921C1.95324 13.5249 4.37374 8.91162 4.95542 6.9672C4.94716 6.99611 4.9389 7.02619 4.93005 7.05215C5.18726 7.29284 5.74947 7.58722 6.23439 8.05563C6.5388 8.35059 6.87624 8.74172 7.22784 9.22311C6.90633 9.67913 5.93412 10.9203 3.52837 13.1456C3.15848 12.6648 2.82398 12.3444 2.63344 12.2359L2.45174 12.6076C2.58683 12.6884 2.72016 12.781 2.97678 13.0359C3.34372 13.4004 4.02096 14.4004 4.41327 15.4817C4.46164 15.4581 4.546 15.4564 4.62269 15.4611C3.85106 15.5065 3.73602 16.077 3.3567 16.1483ZM6.52936 14.6735C5.64741 15.1514 5.10467 16.3513 4.66753 16.3513C4.64246 16.351 4.61759 16.3468 4.59379 16.3389C4.37374 16.2663 4.8687 15.6097 4.7979 15.4805L4.80675 15.4817C4.54771 14.7789 4.20252 14.1109 3.77909 13.4931C4.16186 13.1393 4.53964 12.7802 4.91235 12.4158C5.26218 12.5757 5.92232 12.8606 6.90751 13.2181C7.31574 13.3674 7.71572 13.499 8.1098 13.6199C7.73637 13.942 7.22784 14.2942 6.52936 14.6735ZM8.40476 13.3432C7.94345 13.207 7.48643 13.0567 7.03435 12.8925C6.40781 12.6675 5.78937 12.4206 5.18018 12.1521C6.49042 10.8543 7.16885 10.0248 7.48564 9.59241C7.9924 10.3375 8.52039 11.256 9.01947 12.3468C8.95458 12.6217 8.78114 12.9568 8.40476 13.3432ZM12.9626 26.9854L14.9554 27.5653C15.2616 27.2621 15.6751 26.9288 16.0474 26.645C16.3476 26.9748 16.7276 27.4827 17.0939 28.2125C16.2727 28.5612 15.6368 29.0921 15.6368 29.0921C15.6368 29.0921 10.4442 28.6573 10.0701 28.544C9.69672 28.4296 8.91918 27.7388 9.66191 26.9654C9.84243 26.7784 10.1097 26.4398 10.4094 26.0433C11.4648 25.8498 12.4293 25.5678 13.3714 25.2894C13.9332 25.1187 14.4987 24.9605 15.0675 24.8151C13.6204 25.9985 12.9626 26.9854 12.9626 26.9854ZM17.7741 23.6417C16.8337 23.6417 15.8839 23.7325 14.9224 23.9691C12.6641 24.5231 10.6394 25.4316 7.81778 25.4316C7.30159 25.4316 6.75767 25.4009 6.18189 25.3324C6.18189 25.3324 5.37722 28.019 5.79843 29.213C6.00609 29.8041 6.58423 30.0926 7.11635 30.233C7.12815 30.236 7.13817 30.2372 7.14879 30.2401C6.99187 30.7445 6.77714 31.5421 6.63142 32.4807L6.59956 32.4659C5.22561 31.7338 3.31068 29.6962 4.382 24.0788C4.382 24.0788 7.51927 23.4653 8.9357 22.3757C8.9357 22.3757 7.40305 18.4627 8.86786 15.8032C9.12625 15.3325 9.41591 14.6818 9.56457 14.0122C9.74273 14.0523 9.91263 14.083 10.0849 14.116C10.1197 14.9089 10.6589 15.4168 11.486 15.4192L11.6842 15.4198C12.4529 15.4198 12.8676 15.3165 13.0841 14.9891H16.8343C17.1364 15.3696 17.9381 16.5448 17.2603 17.5854C16.5028 18.7482 17.8266 20.5416 19.9781 21.0643L20.1279 21.863C20.0548 22.3586 19.8896 23.0081 19.5256 23.7432C18.9438 23.6801 18.3593 23.6462 17.7741 23.6417ZM19.9073 25.4823C19.3994 25.4823 19.0407 25.4516 18.9268 25.4404C18.8731 25.4174 18.751 25.359 18.7611 25.3201C18.8897 25.1153 19.9787 24.4635 20.9131 23.9762L21.1043 23.8765L20.4736 20.5139C20.8848 20.5109 21.5562 20.4372 22.1231 20.0773L22.5661 25.2027C21.6923 25.3902 20.801 25.4839 19.9073 25.4823ZM31.9685 31.8642C31.7508 32.345 31.3326 33.0753 30.6884 33.4877C29.9043 32.2353 29.02 29.8566 30.2618 26.4014C30.2618 26.4014 28.761 27.2539 26.9623 27.2539C25.7081 27.2539 24.3118 26.8267 23.1761 25.4186L22.7909 20.9829C23.0517 20.9068 23.3154 20.8183 23.5814 20.7003C25.7075 19.7582 24.7182 17.7889 24.6091 16.3702C25.281 16.0262 25.9205 15.644 26.3594 15.2593C26.4208 15.2062 26.4668 15.1519 26.5228 15.0988C26.5783 15.0959 26.6337 15.0888 26.6874 15.0888C27.7812 15.0894 28.6714 15.6841 29.2707 16.5719L29.2696 16.5731C29.515 16.9377 29.712 17.3518 29.853 17.7943H29.8542C30.4689 19.7222 30.0371 22.1928 28.0496 23.496C28.8265 24.2558 29.4371 24.375 30.0495 24.375C30.3297 24.375 30.6105 24.3502 30.9084 24.3502C31.1574 24.3502 31.4181 24.3673 31.7001 24.4322C31.7001 24.4322 32.2481 25.1643 31.8712 26.3011C31.5355 27.3223 30.3108 29.8956 31.9685 31.8642ZM33.4581 30.0496C33.4274 30.0242 33.3944 30.0024 33.3631 29.9758C32.8882 29.5817 32.4587 29.1475 32.0505 28.7033C32.1508 28.1205 32.3443 27.5353 32.5472 26.9789C32.5844 26.8781 32.6115 26.7961 32.6428 26.7111C33.0708 27.1653 33.5524 27.5658 34.0769 27.904L34.1672 27.9582C33.9702 28.9257 33.6982 29.5971 33.4581 30.0496Z" fill="black"/>
</svg>
