<?xml version="1.0" standalone="no"?><!DOCTYPE svg PUBLIC "-//W3C//DTD SVG 1.1//EN" "http://www.w3.org/Graphics/SVG/1.1/DTD/svg11.dtd"><svg xmlns:xlink="http://www.w3.org/1999/xlink" version="1.1" style="font-family:dosis, sans-serif;font-size:12px;" xmlns="http://www.w3.org/2000/svg" width="600" height="400"><desc>Created with Highcharts 4.2.7</desc><defs><clipPath id="highcharts-62"><rect x="0" y="0" width="580" height="270"></rect></clipPath></defs><rect x="10" y="60" width="580" height="270" fill="rgb(255, 255, 255)" fill-opacity=" .9"></rect><g class="highcharts-series-group"><g class="highcharts-series highcharts-series-0" transform="translate(10,60) scale(1 1)"><path fill="#50B432" d="M 289.9798363528342 31.000002053397324 A 99 99 0 0 1 348.30903704495853 210.00660097073023 L 290 130 A 0 0 0 0 0 290 130 Z" stroke="#FFFFFF" stroke-width="1" stroke-linejoin="round" transform="translate(0,0)"></path><path fill="#ED561B" d="M 348.2290013028061 210.06486999475987 A 99 99 0 0 1 231.89858809613793 210.15750703943925 L 290 130 A 0 0 0 0 0 290 130 Z" stroke="#FFFFFF" stroke-width="1" stroke-linejoin="round" transform="translate(0,0)"></path><path fill="#DDDF00" d="M 231.81845965316163 210.09936555846878 A 99 99 0 0 1 195.88935278781136 160.72761105753213 L 290 130 A 0 0 0 0 0 290 130 Z" stroke="#FFFFFF" stroke-width="1" stroke-linejoin="round" transform="translate(0,0)"></path><path fill="#24CBE5" d="M 195.85867223719478 160.6334850622008 A 99 99 0 0 1 192.77397262108275 148.65742747846105 L 290 130 A 0 0 0 0 0 290 130 Z" stroke="#FFFFFF" stroke-width="1" stroke-linejoin="round" transform="translate(0,0)"></path><path fill="#64E572" d="M 192.75536380972352 148.56019213857354 A 99 99 0 0 1 191.00001738629422 130.05867270195483 L 290 130 A 0 0 0 0 0 290 130 Z" stroke="#FFFFFF" stroke-width="1" stroke-linejoin="round" transform="translate(0,0)"></path><path fill="#FF9655" d="M 191.00000821358924 129.9596727065048 A 99 99 0 0 1 192.73343259794757 111.55508563798712 L 290 130 A 0 0 0 0 0 290 130 Z" stroke="#FFFFFF" stroke-width="1" stroke-linejoin="round" transform="translate(0,0)"></path><path fill="#FFF263" d="M 192.75192614251506 111.45782830925259 A 99 99 0 0 1 203.18620945301996 82.41464751769642 L 290 130 A 0 0 0 0 0 290 130 Z" stroke="#FFFFFF" stroke-width="1" stroke-linejoin="round" transform="translate(0,0)"></path><path fill="#6AF9C4" d="M 203.23383820446298 82.32785753429266 A 99 99 0 0 1 222.12838188502297 57.9275124998816 L 290 130 A 0 0 0 0 0 290 130 Z" stroke="#FFFFFF" stroke-width="1" stroke-linejoin="round" transform="translate(0,0)"></path><path fill="#2F7ED8" d="M 222.20048829631725 57.859676929319306 A 99 99 0 0 1 289.8624909861309 31.000095498676842 L 290 130 A 0 0 0 0 0 290 130 Z" stroke="#FFFFFF" stroke-width="1" stroke-linejoin="round" transform="translate(0,0)"></path></g><g class="highcharts-markers highcharts-series-0" transform="translate(10,60) scale(1 1)"></g></g><text x="300" text-anchor="middle" class="highcharts-title" style="color:#333;font-size:16px;font-family:dosis, sans-serif;font-weight:bold;text-transform:uppercase;fill:#333;width:536px;" y="22"><tspan>Tokenomics Breakdown</tspan></text><text x="300" text-anchor="middle" class="highcharts-subtitle" style="color:#666666;font-size:12px;font-family:dosis, sans-serif;font-weight:normal;text-transform:none;fill:#666666;width:536px;" y="44"><tspan>Horse Link</tspan></text><g class="highcharts-data-labels highcharts-series-0" transform="translate(10,60) scale(1 1)" opacity="1"><path fill="none" d="M 417.6862906020748 90.13680772563178 C 412.6862906020748 90.13680772563178 405.0778384717135 92.60894368063137 394.61621679246684 96.00813061875579 L 384.1545951132202 99.4073175568802" stroke="#50B432" stroke-width="1"></path><path fill="none" d="M 285 259 C 290 259 290 251 290 240 L 290 229" stroke="#ED561B" stroke-width="1"></path><path fill="none" d="M 180.6368077256318 205.82429754572905 C 185.6368077256318 205.82429754572905 192.1089436806314 201.12201552738927 201.0081306187558 194.65637775217206 L 209.90731755688023 188.19073997695486" stroke="#DDDF00" stroke-width="1"></path><path fill="none" d="M 162.03659080848482 169 C 167.03659080848482 169 172.80143750343564 160.09147634694745 183.4558522758506 157.35588758813404 L 194.11026704826554 154.62029882932063" stroke="#24CBE5" stroke-width="1"></path><path fill="none" d="M 157.26198686373738 148 C 162.26198686373738 148 169.53700228302733 141.3871059115402 180.48818389366122 140.35191446503654 L 191.4393655042951 139.31672301853288" stroke="#64E572" stroke-width="1"></path><path fill="none" d="M 156.5725065662027 117.86002758191157 C 161.5725065662027 117.86002758191157 169.53700228302733 118.6128940884597 180.48818389366122 119.64808553496336 L 191.4393655042951 120.68327698146702" stroke="#FF9655" stroke-width="1"></path><path fill="none" d="M 163.62638080490495 86.30280828835734 C 168.62638080490495 86.30280828835734 176.15342695653874 89.01271165031967 186.5031154150352 92.73882877301789 L 196.85280387353168 96.4649458957161" stroke="#FFF263" stroke-width="1"></path><path fill="none" d="M 183.07000340353602 50.934990078765935 C 188.07000340353602 50.934990078765935 194.39124350254156 55.83824650798975 203.08294863867414 62.5802240981725 L 211.77465377480672 69.32220168835525" stroke="#6AF9C4" stroke-width="1"></path><path fill="none" d="M 237.5119327036768 10.058833320415474 C 242.5119327036768 10.058833320415474 245.4569291251542 17.497045207521488 249.50629920468563 27.724586552292262 L 253.55566928421706 37.952127897063036" stroke="#2F7ED8" stroke-width="1"></path><g style="cursor:pointer;" transform="translate(423,80)"><text x="5" style="font-size:10px;font-weight:bold;font-family:'arial', sans-serif;color:#333;text-shadow:none;fill:#333;text-rendering:geometricprecision;" y="15"><tspan>Public: 40.0%</tspan></text></g><g style="cursor:pointer;" transform="translate(202,249)"><text x="5" style="font-size:10px;font-weight:bold;font-family:'arial', sans-serif;color:#333;text-shadow:none;fill:#333;text-rendering:geometricprecision;" y="15"><tspan>Private: 20.0%</tspan></text></g><g style="cursor:pointer;" transform="translate(107,196)"><text x="5" style="font-size:10px;font-weight:bold;font-family:'arial', sans-serif;color:#333;text-shadow:none;fill:#333;text-rendering:geometricprecision;" y="15"><tspan>Seed: 10.0%</tspan></text></g><g style="cursor:pointer;" transform="translate(74,159)"><text x="5" style="font-size:10px;font-weight:bold;font-family:'arial', sans-serif;color:#333;text-shadow:none;fill:#333;text-rendering:geometricprecision;" y="15"><tspan>Advisors: 2.0%</tspan></text></g><g style="cursor:pointer;" transform="translate(58,138)"><text x="5" style="font-size:10px;font-weight:bold;font-family:'arial', sans-serif;color:#333;text-shadow:none;fill:#333;text-rendering:geometricprecision;" y="15"><tspan>Community: 3.0%</tspan></text></g><g style="cursor:pointer;" transform="translate(71,108)"><text x="5" style="font-size:10px;font-weight:bold;font-family:'arial', sans-serif;color:#333;text-shadow:none;fill:#333;text-rendering:geometricprecision;" y="15"><tspan>Liquidity: 3.0%</tspan></text></g><g style="cursor:pointer;" transform="translate(57,76)"><text x="5" style="font-size:10px;font-weight:bold;font-family:'arial', sans-serif;color:#333;text-shadow:none;fill:#333;text-rendering:geometricprecision;" y="15"><tspan>Development: 5.0%</tspan></text></g><g style="cursor:pointer;" transform="translate(92,41)"><text x="5" style="font-size:10px;font-weight:bold;font-family:'arial', sans-serif;color:#333;text-shadow:none;fill:#333;text-rendering:geometricprecision;" y="15"><tspan>Marketing: 5.0%</tspan></text></g><g style="cursor:pointer;" transform="translate(162,0)"><text x="5" style="font-size:10px;font-weight:bold;font-family:'arial', sans-serif;color:#333;text-shadow:none;fill:#333;text-rendering:geometricprecision;" y="15"><tspan>Team: 12.0%</tspan></text></g></g><g class="highcharts-legend" transform="translate(55,342)"></g></svg>